<?xml version="1.0" encoding="UTF-8"?>
<svg id="Capa_1" xmlns="http://www.w3.org/2000/svg" version="1.1" viewBox="0 0 250 250">
  <!-- Generator: Adobe Illustrator 29.5.1, SVG Export Plug-In . SVG Version: 2.1.0 Build 141)  -->
  <defs>
    <style>
      .st0 {
        stroke-width: 11px;
      }

      .st0, .st1, .st2, .st3 {
        fill: #142942;
      }

      .st0, .st1, .st3 {
        stroke: #142942;
      }

      .st4 {
        fill: #fff;
      }

      .st1, .st3 {
        stroke-width: 8px;
      }

      .st3 {
        stroke-linecap: round;
      }
    </style>
  </defs>
  <rect class="st0" x="-256.96" y="14.08" width="38.78" height="38.78" rx="-89.7" ry="-89.7"/>
  <line class="st0" x1="-198.79" y1="33.47" x2="-92.15" y2="33.47"/>
  <rect class="st2" x="-215.12" y="81.94" width="38.78" height="38.78" rx="-68.78" ry="-68.78"/>
  <line class="st1" x1="-166.43" y1="101.33" x2="-111.54" y2="101.33"/>
  <line class="st3" x1="-92.15" y1="72.25" x2="-92.15" y2="130.42"/>
  <line class="st3" x1="-121.23" y1="101.33" x2="-63.06" y2="101.33"/>
  <rect class="st2" x="-215.12" y="160.97" width="38.78" height="38.78" rx="-68.78" ry="-68.78"/>
  <line class="st1" x1="-166.43" y1="180.36" x2="-111.54" y2="180.36"/>
  <line class="st3" x1="-92.15" y1="151.27" x2="-92.15" y2="209.44"/>
  <line class="st3" x1="-121.23" y1="180.36" x2="-63.06" y2="180.36"/>
  <path class="st4" d="M118.02,8c94.09-5.21,156.81,97.8,106.66,178.65-43.47,70.09-141.68,74.55-192.04,9.4C-24.28,122.42,25.58,13.12,118.02,8ZM119.13,21.84C37.98,26.44-4.66,119.83,42.38,185.76c43.69,61.24,136.48,55.14,172.76-10.32,39.2-70.73-15.47-158.15-96-153.59Z"/>
  <path class="st2" d="M-98.48,272.08c4.12-.93,7.91-.18,11.25,2.28,5.98,4.39,31.11,29.53,35.5,35.5,3.33,4.54,3.59,10.37.36,15.04l-147.68,147.75c-21.01,10.84-44.52,25.44-66.51,33.87-4.8,1.84-8.18,3.03-13.01-.02-11.57-7.3-.81-25.88,3.08-35.21,6.61-15.84,13.8-32.83,23.02-47.16l148.08-148.17c1.48-1.23,4.11-3.48,5.9-3.89ZM-95.77,294.76c-1.05,3.62-19.15,17.46-18.73,19.88l23.09,22.5,19.23-19.82-21.96-22.17-1.64-.38ZM-129.49,329.12l-105.02,104.78,22.84,22.9,106.07-105.33-21.58-21.68c-.66-.68-1.38-.93-2.32-.68ZM-259.82,483.27l30.99-15.91-16.72-16.73-14.27,32.64Z"/>
  <path class="st4" d="M132.54,117.47h51.77c2.33,0,5.62,4.01,5.84,6.36s-2.24,8.03-4.73,8.03h-52.88v51.77c0,2.28-3.96,5.23-6.36,5.31s-7.48-2.41-7.48-4.75v-52.33h-51.77c-.64,0-3.28-2.05-3.84-2.8-2.01-2.7-1.9-7,.48-9.41.59-.6,3.93-2.18,4.46-2.18h50.67v-52.33c0-.3,1.84-2.85,2.36-3.24,2.71-2.01,6.38-2.04,9,.19.6.51,2.49,3.13,2.49,3.61v51.77Z"/>
</svg>