<?xml version="1.0" encoding="UTF-8"?>
<svg id="Capa_1" xmlns="http://www.w3.org/2000/svg" version="1.1" viewBox="0 0 250 250">
  <!-- Generator: Adobe Illustrator 29.5.1, SVG Export Plug-In . SVG Version: 2.1.0 Build 141)  -->
  <defs>
    <style>
      .st0 {
        fill: #fff;
      }

      .st1 {
        fill: #142942;
      }
    </style>
  </defs>
  <path class="st1" d="M182.13,37.6h11.96c10.35,0,20.54,9.95,21.23,20.27l.03,154.8-.57,2.36-30.2,29.37-2.68,1.22h-92.32c-10.44.28-21.71-10.3-21.71-20.76v-12.45h-11.96c-10.35,0-20.54-9.95-21.23-20.27l-.03-167c.87-11.15,9.26-19.46,20.29-20.73h106.43c10.06.19,20.76,10.67,20.76,20.74v12.45ZM209.47,209.96V57.37c0-6.72-9.41-13.92-15.87-13.92h-11.47v136.96l-1.45,1.97c-9.75,7.97-19.15,20.82-28.81,28.32-.44.34-2.45,1.7-2.7,1.7h-75.44v11.96c0,6.56,7.67,15.38,14.4,15.38h91.06v-27.59c0-.49,1.71-2.2,2.2-2.2h28.08ZM171.87,182.62h-20.02v19.53l20.02-19.53ZM205.08,215.82h-20.02v19.53l20.02-19.53Z"/>
  <path class="st0" d="M209.47,209.96h-28.08c-.49,0-2.2,1.71-2.2,2.2v27.59h-91.06c-6.74,0-14.4-8.82-14.4-15.38v-11.96h75.44c.25,0,2.26-1.36,2.7-1.7,9.66-7.5,19.06-20.35,28.81-28.32l1.45-1.97V43.46h11.47c6.46,0,15.87,7.2,15.87,13.92v152.59Z"/>
  <polygon class="st0" points="205.08 215.82 185.06 235.35 185.06 215.82 205.08 215.82"/>
  <polygon class="st0" points="171.87 182.62 151.85 202.15 151.85 182.62 171.87 182.62"/>
</svg>