<?xml version="1.0" encoding="UTF-8"?>
<svg id="Capa_1" xmlns="http://www.w3.org/2000/svg" version="1.1" viewBox="0 0 250 250">
  <!-- Generator: Adobe Illustrator 29.5.1, SVG Export Plug-In . SVG Version: 2.1.0 Build 141)  -->
  <defs>
    <style>
      .st0 {
        stroke-width: 11px;
      }

      .st0, .st1, .st2, .st3 {
        fill: #142942;
      }

      .st0, .st1, .st3 {
        stroke: #142942;
      }

      .st4 {
        fill: #fff;
      }

      .st1, .st3 {
        stroke-width: 8px;
      }

      .st3 {
        stroke-linecap: round;
      }
    </style>
  </defs>
  <rect class="st0" x="-256.96" y="14.08" width="38.78" height="38.78" rx="-89.7" ry="-89.7"/>
  <line class="st0" x1="-198.79" y1="33.47" x2="-92.15" y2="33.47"/>
  <rect class="st2" x="-215.12" y="81.94" width="38.78" height="38.78" rx="-68.78" ry="-68.78"/>
  <line class="st1" x1="-166.43" y1="101.33" x2="-111.54" y2="101.33"/>
  <line class="st3" x1="-92.15" y1="72.25" x2="-92.15" y2="130.42"/>
  <line class="st3" x1="-121.23" y1="101.33" x2="-63.06" y2="101.33"/>
  <rect class="st2" x="-215.12" y="160.97" width="38.78" height="38.78" rx="-68.78" ry="-68.78"/>
  <line class="st1" x1="-166.43" y1="180.36" x2="-111.54" y2="180.36"/>
  <line class="st3" x1="-92.15" y1="151.27" x2="-92.15" y2="209.44"/>
  <line class="st3" x1="-121.23" y1="180.36" x2="-63.06" y2="180.36"/>
  <path d="M617.23,37.4c70.15-3.89,116.91,72.91,79.52,133.19-32.41,52.25-105.63,55.58-143.17,7.01-42.44-54.89-5.26-136.38,63.65-140.2ZM618.06,47.72c-60.5,3.43-92.29,73.05-57.22,122.21,32.57,45.65,101.75,41.11,128.8-7.7,29.22-52.73-11.54-117.91-71.58-114.51Z"/>
  <path class="st4" d="M618.06,47.72c60.04-3.4,100.8,61.78,71.58,114.51-27.05,48.81-96.22,53.35-128.8,7.7-35.07-49.15-3.28-118.78,57.22-122.21ZM628.05,119.01v-38.6c0-.36-1.41-2.31-1.85-2.69-1.96-1.66-4.69-1.64-6.71-.14-.39.29-1.76,2.19-1.76,2.42v39.01h-37.77c-.4,0-2.89,1.18-3.33,1.63-1.78,1.8-1.86,5-.36,7.02.42.56,2.39,2.09,2.86,2.09h38.6v39.01c0,1.75,3.79,3.61,5.58,3.54s4.74-2.26,4.74-3.96v-38.6h39.43c1.86,0,3.7-4.17,3.53-5.99s-2.61-4.75-4.35-4.75h-38.6Z"/>
  <path class="st2" d="M192.95,6.67c4.12-.93,7.91-.18,11.25,2.28,5.98,4.39,31.11,29.53,35.5,35.5,3.33,4.54,3.59,10.37.36,15.04L92.38,207.24c-21.01,10.84-44.52,25.44-66.51,33.87-4.8,1.84-8.18,3.03-13.01-.02-11.57-7.3-.81-25.88,3.08-35.21,6.61-15.84,13.8-32.83,23.02-47.16L187.05,10.56c1.48-1.23,4.11-3.48,5.9-3.89ZM195.65,29.35c-1.05,3.62-19.15,17.46-18.73,19.88l23.09,22.5,19.23-19.82-21.96-22.17-1.64-.38ZM161.93,63.71l-105.02,104.78,22.84,22.9,106.07-105.33-21.58-21.68c-.66-.68-1.38-.93-2.32-.68ZM31.6,217.87l30.99-15.91-16.72-16.73-14.27,32.64Z"/>
  <path d="M628.05,119.01h38.6c1.74,0,4.19,2.99,4.35,4.75s-1.67,5.99-3.53,5.99h-39.43v38.6c0,1.7-2.95,3.9-4.74,3.96s-5.58-1.79-5.58-3.54v-39.01h-38.6c-.48,0-2.45-1.53-2.86-2.09-1.5-2.01-1.42-5.22.36-7.02.44-.45,2.93-1.63,3.33-1.63h37.77v-39.01c0-.22,1.37-2.13,1.76-2.42,2.02-1.5,4.76-1.52,6.71.14.45.38,1.85,2.33,1.85,2.69v38.6Z"/>
</svg>