<?xml version="1.0" encoding="UTF-8"?>
<svg id="Capa_1" xmlns="http://www.w3.org/2000/svg" version="1.1" viewBox="0 0 100 100">
  <!-- Generator: Adobe Illustrator 29.5.1, SVG Export Plug-In . SVG Version: 2.1.0 Build 141)  -->
  <defs>
    <style>
      .st0 {
        fill: #933;
      }

      .st1 {
        fill: #fff;
      }
    </style>
  </defs>
  <path class="st0" d="M84.54,31.17l-1.72,57.23c-1.67,4.69-5.53,7.03-10.38,7.58-9.68,1.09-29.88.78-39.85.03-12.05-.91-12.29-7.04-12.88-17.57-.46-8.16-.61-16.87-.78-24.98-.16-7.42.18-14.87.03-22.28h65.58ZM39.14,42.22c-2.57-1.27-3.47-1.33-3.83,1.79-1.34,11.83,1.41,25.39.98,37.35l1.77,1.92,2.01-1.09-.93-39.96ZM49.41,43.27v38.26c0,.2,1.82,2.13,2.62,1.89.42-.07,2.06-1.75,2.06-1.89v-38.26c0-.14-1.64-1.81-2.06-1.89-.81-.15-2.5,1.45-2.62,1.89ZM68.07,42.18l-3.87.43-.78,39.57c1.44,1.64,3.02,1.2,3.78-.82l.87-39.18Z"/>
  <path class="st0" d="M64.25,12.43c6.08.53,13.21-.71,19.14-.02,8.49.99,7.72,13.37-.2,14.67-19.57-1.35-43.19,2.44-62.29.2-8.45-.99-9.46-13.86-.78-14.87,2.6-.3,16.17.57,16.77-.02.04-4.27,1.56-7.56,6.07-8.37,2.87-.52,14.07-.62,16.64.16,3.17.97,5.22,5.06,4.65,8.24ZM59.56,8.52h-17.96v3.9h18.74l-.78-3.9Z"/>
  <path class="st1" d="M49.41,43.27c.12-.44,1.81-2.04,2.62-1.89.42.07,2.06,1.75,2.06,1.89v38.26c0,.14-1.64,1.81-2.06,1.89-.8.24-2.62-1.69-2.62-1.89v-38.26Z"/>
  <path class="st1" d="M39.14,42.22l.93,39.96-2.01,1.09-1.77-1.92c.43-11.96-2.32-25.52-.98-37.35.35-3.11,1.26-3.06,3.83-1.79Z"/>
  <path class="st1" d="M68.07,42.18l-.87,39.18c-.76,2.02-2.34,2.46-3.78.82l.78-39.57,3.87-.43Z"/>
  <polygon class="st1" points="59.56 8.52 60.34 12.43 41.6 12.43 41.6 8.52 59.56 8.52"/>
</svg>