<?xml version="1.0" encoding="UTF-8"?>
<svg id="Capa_1" xmlns="http://www.w3.org/2000/svg" version="1.1" viewBox="0 0 250 250">
  <!-- Generator: Adobe Illustrator 30.1.0, SVG Export Plug-In . SVG Version: 2.1.1 Build 136)  -->
  <defs>
    <style>
      .st0 {
        fill: #142942;
      }
    </style>
  </defs>
  <path class="st0" d="M192.95,6.67c4.12-.93,7.91-.18,11.25,2.28,5.98,4.39,31.11,29.53,35.5,35.5,3.33,4.54,3.59,10.37.36,15.04L92.38,207.24c-21.01,10.84-44.52,25.44-66.51,33.87-4.8,1.84-8.18,3.03-13.01-.02-11.57-7.3-.81-25.88,3.08-35.21,6.61-15.84,13.8-32.83,23.02-47.16L187.05,10.56c1.48-1.23,4.11-3.48,5.9-3.89ZM195.65,29.35c-1.05,3.62-19.15,17.46-18.73,19.88l23.09,22.5,19.23-19.82-21.96-22.17-1.64-.38h0ZM161.93,63.71l-105.02,104.78,22.84,22.9,106.07-105.33-21.58-21.68c-.66-.68-1.38-.93-2.32-.68h0ZM31.6,217.87l30.99-15.91-16.72-16.73s-14.27,32.64-14.27,32.64Z"/>
</svg>