<?xml version="1.0" encoding="UTF-8"?>
<svg id="Capa_1" xmlns="http://www.w3.org/2000/svg" version="1.1" viewBox="0 0 250 250">
  <!-- Generator: Adobe Illustrator 30.1.0, SVG Export Plug-In . SVG Version: 2.1.1 Build 136)  -->
  <defs>
    <style>
      .st0 {
        fill: #142942;
      }
    </style>
  </defs>
  <path class="st0" d="M166.25,197.41c-10.22,1.76-20,3.22-30.11,4.43-1.99.24-3.91-1.49-4.52-2.84-.79-1.74-.64-4.11.78-5.65l6.06-6.6-32.72-14.5-33.24-14.93c-8.2,12.32-21.65,19.11-36.15,17.98-13.62-1.05-26.29-9.02-32.44-21.89-5.13-10.75-5.27-23.14-.14-33.88,6.84-14.29,21.17-22.3,36.92-21.7,9.84.37,18.67,4.42,25.75,11.28l39.27-21.29,66.89-35.98c-5.4-18.64,1.9-37.88,18.84-46.73,17.89-9.34,39.48-4.13,51.2,12.23,9.93,13.86,9.77,32.6-.6,46.2-15.07,19.21-45.03,20.54-61.28,1.63l-105.56,56.65c2.75,6.62,3.83,13.71,2.74,20.89l67.22,30.6c1.16-4.64.11-12.49,5.37-13.14,1.71-.21,3.67.57,4.81,2.11,5.17,6.97,9.83,14.05,14.37,21.41,1.2,1.94.81,3.6,0,5.53l-3.47,8.21Z"/>
  <path class="st0" d="M228.96,244.9c-14.6,7.64-31.82,5.62-44.14-4.58-12.36-10.23-17.23-26.8-12.51-42.48,3.45-11.45,12.64-20.38,22.54-24.33,12.83-5.12,25.9-3.37,36.69,3.54,10.92,6.99,17.7,18.43,18.4,31.32.84,15.41-7.18,29.31-20.98,36.52Z"/>
</svg>