<?xml version="1.0" encoding="UTF-8"?>
<svg id="Capa_2" xmlns="http://www.w3.org/2000/svg" version="1.1" viewBox="0 0 250 250">
  <!-- Generator: Adobe Illustrator 30.1.0, SVG Export Plug-In . SVG Version: 2.1.1 Build 136)  -->
  <defs>
    <style>
      .st0 {
        fill: #61a929;
      }

      .st1 {
        fill: #142942;
      }
    </style>
  </defs>
  <path class="st1" d="M0,183.73v-17.99c1.29-4.23,3.53-7.48,7.22-10.26,8.03-6.02,16.14-11.46,25.24-16.15l.08-14.5c-2.45-2.81-4.02-6.06-4.01-9.9l.03-19.99c.02-14.38,11.69-23.41,25.41-23.29s24.84,9.14,24.88,23.29l.05,19.45c.01,4.02-1.41,7.49-4.04,10.43v14.43c9.21,4.79,17.68,10.33,25.92,16.71,4.02,3.11,6.62,7.13,6.6,12.44l-.04,13.69c0,3.12-2.67,5.13-5.46,4.87-2.6-.24-4.53-2.39-4.53-5.35v-12.69c0-2.35-1.19-3.74-2.89-5.07-8.25-6.44-16.84-11.97-26.2-16.72-2.08-1.05-3.45-3.08-3.46-5.42l-.02-19.17c0-4.3,3.98-3.94,3.98-8.16v-18.93c.01-9.04-6.98-13.84-15.33-13.8s-15.02,4.91-15.01,13.8l.02,18.93c0,4.28,4.12,3.97,4.12,8.59l.02,18.74c0,2.34-1.39,4.37-3.46,5.42-9.35,4.75-17.94,10.28-26.2,16.72-1.71,1.33-2.9,2.71-2.9,5.07v12.68c0,2.92-1.81,4.99-4.45,5.36-2.47.35-4.08-1.32-5.6-3.25Z"/>
  <path class="st1" d="M250,165.74v17.4c-1.16,2.33-2.73,4.14-5.63,3.84-1.92-.2-4.55-2.36-4.43-4.86l-.94-2.9.05-10.87c-.09-.74-.42-1.89-1-2.37-8.71-7.28-18.48-13.28-28.54-18.56-1.99-1.2-2.64-3.45-2.95-5.6-.43-2.93-.5-16.92,0-19.66.47-2.59,1.36-3.75,3.25-5.46l.63-1.43.08-19.79c-.85-8.35-5.34-12.69-13.96-12.75s-13.38,4.26-14.28,12.75c-.34,3.19-.53,16.66.03,19.37.14.68.23,1.08.62,1.69,1.9,1.55,3.01,3.41,3.34,5.56v19.65c-.02,2.17-1.24,4.66-3.12,5.78-9.91,5.26-19.83,11.11-28.34,18.41-.62.53-1,1.63-1.09,2.44l.04,12.89-1.05.78c.01,2.78-2.54,4.97-5.07,4.95s-4.97-1.98-4.97-4.9l-.03-13.74c0-4.37,1.83-8.39,5.18-11.16,8.51-7.04,17.65-12.74,27.3-17.96l.02-14.41c-2.63-2.95-4.05-6.41-4.04-10.43l.05-19.45c.04-14.38,11.69-23.41,25.42-23.29,13.49.11,24.84,9.14,24.88,23.29l.05,19.45c.01,4.02-1.4,7.49-4.05,10.43l.09,14.51c9.12,4.64,17.22,10.1,25.23,16.13,3.71,2.79,5.97,6,7.23,10.27Z"/>
  <path class="st0" d="M239.94,182.12l-87.24-.07-.07-13.12c-.01-2.36,1.16-3.73,2.9-5.07,8.26-6.42,16.84-11.98,26.19-16.71,2.08-1.05,3.46-3.08,3.46-5.42l.02-19.28c0-4.13-3.98-3.91-3.98-8.05v-18.94c-.02-9.03,6.98-13.84,15.33-13.79,8.21.04,15.02,4.92,15.01,13.79l-.02,18.94c0,4.41-3.98,3.59-3.97,8.46l.02,18.55c0,2.47,1.21,4.57,3.4,5.69,9.54,4.87,18.34,10.5,26.72,17.12,1.56,1.24,2.38,2.59,2.41,4.69.07,4.56,0,8.92-.2,13.21Z"/>
  <path class="st1" d="M206.4,206.62c-44.24,45.87-118.2,47.51-164.72,2.92-1.43,4.59,2.55,15.61-4.86,16-2.68.14-5.25-1.92-5.29-4.98l-.28-23.09c-.03-2.75,1.99-5.16,4.8-5.19l23.42-.32c2.9-.04,5.04,2.19,5.15,4.73.34,7.83-10.83,4.43-15.71,5.72,42.35,40.49,108.95,39.07,149.9-2.37,2.02-2.04,5.04-2.11,6.99-.57,1.99,1.57,2.66,5.01.58,7.16Z"/>
  <path class="st1" d="M209.24,57.7l-23.78.33c-2.82.04-4.78-2.4-4.86-4.77-.09-2.52,1.72-5.07,4.5-5.15l11.41-.32C154.41,7.14,86.9,8.4,46.12,50.27c-1.8,1.85-5.26,1.81-7.03.02s-2.2-4.93-.12-7.07C83.5-2.75,157.51-3.89,203.6,40.63c.95-5.52-2.41-15.66,4.69-16.2,2.67-.21,5.35,1.86,5.39,4.92l.28,23.18c.03,2.53-1.82,5.13-4.71,5.17Z"/>
</svg>