<?xml version="1.0" encoding="UTF-8"?>
<svg id="Capa_1" xmlns="http://www.w3.org/2000/svg" version="1.1" viewBox="0 0 250 250">
  <!-- Generator: Adobe Illustrator 30.1.0, SVG Export Plug-In . SVG Version: 2.1.1 Build 136)  -->
  <defs>
    <style>
      .st0 {
        fill: #66ba77;
      }

      .st1 {
        fill: #9ad8f7;
      }

      .st2 {
        fill: #61a929;
      }

      .st3 {
        display: none;
      }

      .st3, .st4 {
        fill: #142942;
      }

      .st5 {
        fill: #fdd544;
      }

      .st6 {
        fill: #0b0d14;
      }

      .st7 {
        fill: #f5973e;
      }

      .st8 {
        fill: #fdfdfd;
      }
    </style>
  </defs>
  <path class="st4" d="M166.25,197.41c-10.22,1.76-20,3.22-30.11,4.43-1.99.24-3.91-1.49-4.52-2.84-.79-1.74-.64-4.11.78-5.65l6.06-6.6-32.72-14.5-33.24-14.93c-8.2,12.32-21.65,19.11-36.15,17.98-13.62-1.05-26.29-9.02-32.44-21.89-5.13-10.75-5.27-23.14-.14-33.88,6.84-14.29,21.17-22.3,36.92-21.7,9.84.37,18.67,4.42,25.75,11.28l39.27-21.29,66.89-35.98c-5.4-18.64,1.9-37.88,18.84-46.73,17.89-9.34,39.48-4.13,51.2,12.23,9.93,13.86,9.77,32.6-.6,46.2-15.07,19.21-45.03,20.54-61.28,1.63l-105.56,56.65c2.75,6.62,3.83,13.71,2.74,20.89l67.22,30.6c1.16-4.64.11-12.49,5.37-13.14,1.71-.21,3.67.57,4.81,2.11,5.17,6.97,9.83,14.05,14.37,21.41,1.2,1.94.81,3.6,0,5.53l-3.47,8.21Z"/>
  <path class="st3" d="M228.96,244.9c-14.6,7.64-31.82,5.62-44.14-4.58-12.36-10.23-17.23-26.8-12.51-42.48,3.45-11.45,12.64-20.38,22.54-24.33,12.83-5.12,25.9-3.37,36.69,3.54,10.92,6.99,17.7,18.43,18.4,31.32.84,15.41-7.18,29.31-20.98,36.52Z"/>
  <path class="st5" d="M201.24,115.4c-1.88-6.7-5.96-11.15-12.8-13.09,8.3-3.14,9.61-4.17,13.54-12.45,1.4,6.6,5.58,11.08,12.28,12.83-7.62,3.69-9.24,4.02-13.02,12.71Z"/>
  <path class="st7" d="M80.55,215.53c-2.58,1.14-5.02-.22-5.94-2.39s-.08-4.91,2.27-5.9,4.81.05,5.84,2.21.36,4.97-2.17,6.09Z"/>
  <path class="st0" d="M174.87,119.6c-1.85.6-3.39-.5-4.02-1.89-.7-1.53-.29-3.41,1.33-4.33,1.81-1.03,3.79-.04,4.58,1.47.94,1.79.17,4.09-1.89,4.75Z"/>
  <path class="st1" d="M119.56,49.72c1.57-.26,2.68.81,2.87,2,.23,1.43-.83,2.67-2,2.92-1.43.3-2.58-.63-2.94-1.75-.45-1.4.5-2.91,2.07-3.17Z"/>
  <path class="st6" d="M147.17,199.61c-.23.02-.53-.02-.74.06-.27-.1-.58.08-1.11-.28.52-.28,1.55-.41,1.85.22Z"/>
  <path class="st5" d="M89.6,80.15c-2.06-7.33-6.52-12.21-14.01-14.33,9.09-3.44,10.52-4.56,14.82-13.63,1.53,7.23,6.11,12.13,13.45,14.05-8.35,4.04-10.11,4.4-14.26,13.91Z"/>
  <path class="st4" d="M217.63,242.41c-22.47,11.75-48.95,8.64-67.91-7.04-19.02-15.74-26.5-41.24-19.25-65.35,5.3-17.62,19.45-31.36,34.68-37.44,19.74-7.87,39.84-5.18,56.44,5.45,16.8,10.76,27.23,28.35,28.31,48.19,1.29,23.7-11.05,45.1-32.28,56.2Z"/>
  <path class="st2" d="M213.72,235.11c-19.41,10.15-42.29,7.47-58.67-6.09-16.43-13.6-22.9-35.63-16.63-56.46,4.58-15.22,16.8-27.09,29.97-32.35,17.05-6.8,34.43-4.48,48.77,4.71,14.52,9.3,23.53,24.49,24.46,41.64,1.11,20.48-9.55,38.96-27.89,48.55Z"/>
  <path class="st8" d="M166.17,222.55c-7.92-7.14-14.59-14.84-21.86-22.25-3.5-3.57-3.29-9.82.18-12.84,3.68-3.19,9.17-2.87,12.77.69l13.33,13.18,41.8-43.91c2.93-3.08,8.7-.36,11.04,2.22,1.98,2.18,3.86,7.85,1.06,10.9l-45.37,49.46c-3.2,3.49-8.68,6.4-12.96,2.54Z"/>
</svg>